<svg width="15" height="15" viewBox="0 0 15 15" fill="none" xmlns="http://www.w3.org/2000/svg">
<path d="M14.145 7.07272C14.145 7.38544 14.025 7.68774 13.8008 7.90664C13.5819 8.13076 13.2795 8.25585 12.9666 8.25585H8.2534V12.9675C8.2534 13.2802 8.12826 13.5825 7.90407 13.8014C7.68509 14.0203 7.38791 14.1454 7.07508 14.1454C6.76226 14.1454 6.45986 14.0203 6.24088 13.8014C6.01669 13.5825 5.89156 13.2802 5.89156 12.9675V8.25585H1.17831C0.865486 8.25585 0.563087 8.13076 0.344109 7.90664C0.12513 7.68774 0 7.38544 0 7.07272C0 6.76 0.12513 6.46291 0.344109 6.23879C0.563087 6.01989 0.865486 5.8948 1.17831 5.8948H5.89156V1.18313C5.89156 0.870408 6.01669 0.568111 6.24088 0.349206C6.45986 0.125089 6.76226 0 7.07508 0C7.38791 0 7.68509 0.125089 7.90407 0.349206C8.12826 0.568111 8.2534 0.870408 8.2534 1.18313V5.8948H12.9666C13.2795 5.8948 13.5819 6.01989 13.8008 6.23879C14.025 6.46291 14.145 6.76 14.145 7.07272Z" fill="white"/>
</svg>
