<svg width="10" height="17" viewBox="0 0 10 17" fill="none" xmlns="http://www.w3.org/2000/svg">
<g clip-path="url(#clip0_1_880)">
<path d="M8.69187 14.2449C8.90445 14.4778 9.02254 14.7842 9.01073 15.103C9.01073 15.4217 8.89264 15.7159 8.66825 15.9488C8.45568 16.1695 8.16044 16.3043 7.85339 16.3043C7.54634 16.3043 7.2511 16.194 7.02672 15.9734L0.342479 9.03481C0.236192 8.92448 0.153525 8.78964 0.0944769 8.64253C0.0354288 8.49542 0 8.33606 0 8.17669C0 8.01733 0.0354288 7.85796 0.0944769 7.69859C0.153525 7.55149 0.236192 7.41664 0.342479 7.30631L7.02672 0.367767C7.133 0.257437 7.26291 0.159366 7.40463 0.0980713C7.55815 0.0367767 7.71168 0 7.8652 0C8.01873 0 8.18406 0.0245178 8.32578 0.0858124C8.46749 0.147107 8.5974 0.245178 8.71549 0.355508C8.82178 0.465838 8.90445 0.612945 8.96349 0.760052C9.03435 0.907159 9.05797 1.06652 9.05797 1.23815C9.05797 1.39752 9.02254 1.55688 8.96349 1.70399C8.90445 1.85109 8.80997 1.98594 8.69187 2.10853L2.84612 8.17669L3.95622 9.31677L8.69187 14.2449Z" fill="#181725"/>
</g>
<defs>
<clipPath id="clip0_1_880">
<rect width="9.05797" height="16.3043" fill="white"/>
</clipPath>
</defs>
</svg>
