<svg width="20" height="15" viewBox="0 0 20 15" fill="none" xmlns="http://www.w3.org/2000/svg">
<path d="M18.6881 0H9.78899H0.889919C0.398443 0 0 0.398442 0 0.889918V13.6028C0 14.0943 0.398443 14.4928 0.889919 14.4928H9.78899H18.6881C19.1795 14.4928 19.578 14.0943 19.578 13.6028V0.889918C19.578 0.398442 19.1795 0 18.6881 0Z" fill="#5286F9"/>
<path d="M10.4692 4.71392C10.6647 4.938 10.8351 5.18463 10.9753 5.4497C11.2593 5.98661 11.4209 6.59784 11.4209 7.24636C11.4209 7.89489 11.2593 8.50605 10.9753 9.04303C10.8351 9.30809 10.6647 9.55465 10.4692 9.77873C10.2679 10.0093 10.0397 10.2157 9.78943 10.3932C10.4186 10.8392 11.186 11.1026 12.0142 11.1026C14.1406 11.1026 15.8705 9.37268 15.8705 7.24636C15.8705 5.12005 14.1406 3.39008 12.0142 3.39008C11.186 3.39008 10.4186 3.65338 9.78943 4.09951C10.0397 4.27701 10.2678 4.48338 10.4692 4.71392Z" fill="#FFB655"/>
<path d="M10.9756 5.44975C10.8354 5.1846 10.6651 4.93804 10.4695 4.71397C10.2681 4.48335 10.04 4.2771 9.78977 4.09963C9.16067 3.65351 8.39319 3.3902 7.56499 3.3902C5.43864 3.3902 3.70874 5.12013 3.70874 7.24645C3.70874 9.37276 5.43868 11.1027 7.56499 11.1027C8.39319 11.1027 9.16067 10.8394 9.78977 10.3933C10.0401 10.2158 10.2681 10.0094 10.4695 9.77889C10.6651 9.55481 10.8354 9.30818 10.9756 9.04319C11.2596 8.50621 11.4213 7.89497 11.4213 7.24652C11.4213 6.59785 11.2596 5.98665 10.9756 5.44975Z" fill="#D8143A"/>
<path d="M7.56421 11.1027C5.43786 11.1027 3.70796 9.3728 3.70796 7.24649C3.70796 5.12018 5.4379 3.39024 7.56421 3.39024C8.39241 3.39024 9.15982 3.65355 9.78899 4.09967V0H0.889919C0.398443 0 0 0.398442 0 0.889918V13.6028C0 14.0943 0.398443 14.4928 0.889919 14.4928H9.78899V10.3932C9.15982 10.8393 8.39241 11.1027 7.56421 11.1027Z" fill="#3D6DEB"/>
</svg>
