<svg width="22" height="22" viewBox="0 0 22 22" fill="none" xmlns="http://www.w3.org/2000/svg">
<g clip-path="url(#clip0_5577_142)">
<path d="M4.25209 9.97257L11.3391 17.0596L18.4262 9.97257C19.0528 9.34598 19.4048 8.49615 19.4048 7.61003C19.4048 6.72391 19.0528 5.87408 18.4262 5.2475C18.1159 4.93724 17.7476 4.69114 17.3422 4.52323C16.9369 4.35532 16.5024 4.2689 16.0636 4.2689C15.1775 4.2689 14.3277 4.62091 13.7011 5.2475L11.3391 7.60947L8.97716 5.24861C8.34898 4.63043 7.50198 4.28552 6.62065 4.28901C5.73932 4.29249 4.89507 4.64409 4.2718 5.26721C3.64853 5.89034 3.29673 6.7345 3.29304 7.61583C3.28935 8.49716 3.63406 9.34424 4.25209 9.97257ZM10.5518 3.67173L11.3391 4.45906L12.1265 3.67173C12.6427 3.15097 13.2567 2.7373 13.9332 2.45447C14.6097 2.17164 15.3354 2.02522 16.0687 2.02361C16.802 2.02201 17.5283 2.16525 18.2061 2.44511C18.8838 2.72498 19.4996 3.13596 20.0181 3.65445C20.5366 4.17295 20.9476 4.78875 21.2275 5.4665C21.5073 6.14425 21.6506 6.87061 21.649 7.60387C21.6474 8.33713 21.5009 9.06285 21.2181 9.73937C20.9353 10.4159 20.5216 11.0299 20.0008 11.5461L12.1276 19.4205C12.0242 19.524 11.9013 19.6062 11.7661 19.6622C11.6309 19.7182 11.486 19.7471 11.3397 19.7471C11.1933 19.7471 11.0484 19.7182 10.9132 19.6622C10.7781 19.6062 10.6552 19.524 10.5518 19.4205L2.67744 11.5472C2.1496 11.0327 1.72918 10.4184 1.44058 9.74011C1.15197 9.06181 1.00093 8.33295 0.996208 7.59582C0.991485 6.85868 1.13318 6.12795 1.41306 5.446C1.69295 4.76406 2.10546 4.14447 2.62667 3.6232C3.14787 3.10192 3.7674 2.68932 4.4493 2.40933C5.13121 2.12935 5.86192 1.98756 6.59906 1.99217C7.33619 1.99679 8.06507 2.14773 8.74341 2.43624C9.42176 2.72475 10.0361 3.14508 10.5507 3.67285L10.5518 3.67173Z" fill="#181725"/>
</g>
<defs>
<clipPath id="clip0_5577_142">
<rect width="21.7391" height="21.7391" fill="white"/>
</clipPath>
</defs>
</svg>
