<svg width="14" height="14" viewBox="0 0 14 14" fill="none" xmlns="http://www.w3.org/2000/svg">
<path d="M8.87436 3.67189L2.2463 10.3L1.81289 11.7784L3.26126 11.3597L9.91133 4.70958L8.87436 3.67189ZM10.0052 2.54105L11.0422 3.57802L12.0087 2.61145C12.0775 2.54269 12.1161 2.44944 12.1161 2.35221C12.1161 2.25498 12.0775 2.16173 12.0087 2.09297L11.4895 1.57449C11.4207 1.50575 11.3275 1.46713 11.2303 1.46713C11.133 1.46713 11.0398 1.50575 10.971 1.57449L10.0059 2.54105H10.0052ZM12.5272 0.537525L13.0457 1.05601C13.3894 1.39982 13.5825 1.86606 13.5825 2.35221C13.5825 2.83836 13.3894 3.30461 13.0457 3.64842L4.03129 12.6636L0.936525 13.5583C0.81038 13.5946 0.676784 13.5965 0.549684 13.5636C0.422584 13.5307 0.30664 13.4643 0.213958 13.3713C0.121276 13.2783 0.0552541 13.1622 0.0227839 13.035C-0.00968627 12.9078 -0.00741362 12.7742 0.0293646 12.6482L0.944592 9.52773L9.93553 0.536791C10.2793 0.193084 10.7456 0 11.2317 0C11.7179 0 12.1841 0.193084 12.5279 0.536791L12.5272 0.537525Z" fill="#53B175"/>
</svg>
